<svg width="66" height="61" viewBox="0 0 66 61" fill="none" xmlns="http://www.w3.org/2000/svg">
<path d="M60.5 10.5H48V8C48 6.01088 47.2098 4.10322 45.8033 2.6967C44.3968 1.29018 42.4891 0.5 40.5 0.5H25.5C23.5109 0.5 21.6032 1.29018 20.1967 2.6967C18.7902 4.10322 18 6.01088 18 8V10.5H5.5C4.17392 10.5 2.90215 11.0268 1.96447 11.9645C1.02678 12.9021 0.5 14.1739 0.5 15.5V55.5C0.5 56.8261 1.02678 58.0979 1.96447 59.0355C2.90215 59.9732 4.17392 60.5 5.5 60.5H60.5C61.8261 60.5 63.0979 59.9732 64.0355 59.0355C64.9732 58.0979 65.5 56.8261 65.5 55.5V15.5C65.5 14.1739 64.9732 12.9021 64.0355 11.9645C63.0979 11.0268 61.8261 10.5 60.5 10.5ZM40.5 38H35.5V43C35.5 43.663 35.2366 44.2989 34.7678 44.7678C34.2989 45.2366 33.663 45.5 33 45.5C32.337 45.5 31.7011 45.2366 31.2322 44.7678C30.7634 44.2989 30.5 43.663 30.5 43V38H25.5C24.837 38 24.2011 37.7366 23.7322 37.2678C23.2634 36.7989 23 36.163 23 35.5C23 34.837 23.2634 34.2011 23.7322 33.7322C24.2011 33.2634 24.837 33 25.5 33H30.5V28C30.5 27.337 30.7634 26.7011 31.2322 26.2322C31.7011 25.7634 32.337 25.5 33 25.5C33.663 25.5 34.2989 25.7634 34.7678 26.2322C35.2366 26.7011 35.5 27.337 35.5 28V33H40.5C41.163 33 41.7989 33.2634 42.2678 33.7322C42.7366 34.2011 43 34.837 43 35.5C43 36.163 42.7366 36.7989 42.2678 37.2678C41.7989 37.7366 41.163 38 40.5 38ZM43 10.5H23V8C23 7.33696 23.2634 6.70107 23.7322 6.23223C24.2011 5.76339 24.837 5.5 25.5 5.5H40.5C41.163 5.5 41.7989 5.76339 42.2678 6.23223C42.7366 6.70107 43 7.33696 43 8V10.5Z" fill="#FFC727"/>
</svg>
