<svg width="222" height="56" viewBox="0 0 222 56" fill="none" xmlns="http://www.w3.org/2000/svg">
<path d="M2.656 39V18.072H9.248C10.8053 18.072 12.192 18.2747 13.408 18.68C14.624 19.0853 15.584 19.7573 16.288 20.696C16.992 21.6347 17.344 22.9147 17.344 24.536C17.344 26.072 16.992 27.3413 16.288 28.344C15.584 29.3467 14.6347 30.0933 13.44 30.584C12.2453 31.0747 10.8907 31.32 9.376 31.32H6.368V39H2.656ZM6.368 28.344H9.088C12.16 28.344 13.696 27.0747 13.696 24.536C13.696 23.2133 13.2907 22.3067 12.48 21.816C11.6907 21.304 10.5173 21.048 8.96 21.048H6.368V28.344ZM20.961 39V23.288H24.001L24.257 26.072H24.385C24.9397 25.048 25.6117 24.2693 26.401 23.736C27.1903 23.1813 28.001 22.904 28.833 22.904C29.5797 22.904 30.177 23.0107 30.625 23.224L29.985 26.424C29.7077 26.3387 29.4517 26.2747 29.217 26.232C28.9823 26.1893 28.6943 26.168 28.353 26.168C27.7343 26.168 27.0837 26.4133 26.401 26.904C25.7183 27.3733 25.1317 28.2053 24.641 29.4V39H20.961ZM39.018 39.384C37.7167 39.384 36.5007 39.064 35.37 38.424C34.2393 37.7627 33.322 36.824 32.618 35.608C31.914 34.3707 31.562 32.888 31.562 31.16C31.562 29.4107 31.914 27.928 32.618 26.712C33.322 25.4747 34.2393 24.536 35.37 23.896C36.5007 23.2347 37.7167 22.904 39.018 22.904C40.3407 22.904 41.5673 23.2347 42.698 23.896C43.8287 24.536 44.746 25.4747 45.45 26.712C46.154 27.928 46.506 29.4107 46.506 31.16C46.506 32.888 46.154 34.3707 45.45 35.608C44.746 36.824 43.8287 37.7627 42.698 38.424C41.5673 39.064 40.3407 39.384 39.018 39.384ZM39.018 36.376C40.17 36.376 41.0767 35.896 41.738 34.936C42.3993 33.976 42.73 32.7173 42.73 31.16C42.73 29.5813 42.3993 28.312 41.738 27.352C41.0767 26.392 40.17 25.912 39.018 25.912C37.866 25.912 36.9593 26.392 36.298 27.352C35.658 28.312 35.338 29.5813 35.338 31.16C35.338 32.7173 35.658 33.976 36.298 34.936C36.9593 35.896 37.866 36.376 39.018 36.376ZM47.5418 39L52.5338 30.808L47.8618 23.288H51.8298L53.5898 26.264C53.8244 26.6907 54.0591 27.1387 54.2938 27.608C54.5498 28.056 54.7951 28.4933 55.0298 28.92H55.1578C55.3498 28.4933 55.5524 28.056 55.7658 27.608C55.9791 27.1387 56.1818 26.6907 56.3738 26.264L57.8778 23.288H61.6858L57.0458 31.224L62.0378 39H58.0698L56.1498 35.896C55.8938 35.4267 55.6271 34.9573 55.3498 34.488C55.0938 34.0187 54.8271 33.56 54.5498 33.112H54.4218C54.2084 33.56 53.9844 34.0187 53.7498 34.488C53.5151 34.936 53.2804 35.4053 53.0458 35.896L51.3818 39H47.5418ZM64.836 39V23.288H68.516V39H64.836ZM66.692 20.536C66.0307 20.536 65.4973 20.344 65.092 19.96C64.6867 19.576 64.484 19.064 64.484 18.424C64.484 17.8053 64.6867 17.304 65.092 16.92C65.4973 16.536 66.0307 16.344 66.692 16.344C67.3533 16.344 67.8867 16.536 68.292 16.92C68.6973 17.304 68.9 17.8053 68.9 18.424C68.9 19.064 68.6973 19.576 68.292 19.96C67.8867 20.344 67.3533 20.536 66.692 20.536ZM73.211 39V23.288H76.251L76.507 25.432H76.635C77.2963 24.728 78.011 24.1307 78.779 23.64C79.5683 23.1493 80.4537 22.904 81.435 22.904C82.587 22.904 83.5043 23.16 84.187 23.672C84.891 24.1627 85.4243 24.8453 85.787 25.72C86.5337 24.9093 87.3123 24.2373 88.123 23.704C88.955 23.1707 89.8617 22.904 90.843 22.904C92.507 22.904 93.7337 23.448 94.523 24.536C95.3123 25.624 95.707 27.16 95.707 29.144V39H91.995V29.624C91.995 28.3227 91.7923 27.4053 91.387 26.872C91.003 26.3387 90.4057 26.072 89.595 26.072C88.6137 26.072 87.515 26.7227 86.299 28.024V39H82.619V29.624C82.619 28.3227 82.4163 27.4053 82.011 26.872C81.627 26.3387 81.019 26.072 80.187 26.072C79.2057 26.072 78.107 26.7227 76.891 28.024V39H73.211ZM103.988 39.384C102.622 39.384 101.502 38.9573 100.628 38.104C99.7744 37.2507 99.3478 36.1413 99.3478 34.776C99.3478 33.0907 100.084 31.7893 101.556 30.872C103.028 29.9333 105.374 29.2933 108.596 28.952C108.574 28.12 108.35 27.4053 107.924 26.808C107.518 26.1893 106.782 25.88 105.716 25.88C104.948 25.88 104.19 26.0293 103.444 26.328C102.718 26.6267 102.004 26.9893 101.3 27.416L99.9557 24.952C100.83 24.3973 101.812 23.9173 102.9 23.512C104.009 23.1067 105.182 22.904 106.42 22.904C108.382 22.904 109.844 23.4907 110.804 24.664C111.785 25.816 112.276 27.4907 112.276 29.688V39H109.236L108.98 37.272H108.852C108.148 37.8693 107.39 38.3707 106.58 38.776C105.79 39.1813 104.926 39.384 103.988 39.384ZM105.172 36.504C105.812 36.504 106.388 36.3547 106.9 36.056C107.433 35.736 107.998 35.3093 108.596 34.776V31.256C106.462 31.5333 104.98 31.9493 104.148 32.504C103.316 33.0373 102.9 33.6987 102.9 34.488C102.9 35.192 103.113 35.704 103.54 36.024C103.966 36.344 104.51 36.504 105.172 36.504ZM125.352 39.384C123.602 39.384 122.013 38.968 120.584 38.136C119.154 37.304 118.013 36.088 117.16 34.488C116.328 32.8667 115.912 30.904 115.912 28.6C115.912 26.3173 116.338 24.3653 117.192 22.744C118.066 21.1013 119.229 19.8533 120.68 19C122.13 18.1253 123.73 17.688 125.48 17.688C126.802 17.688 127.976 17.9547 129 18.488C130.024 19.0213 130.866 19.64 131.528 20.344L129.544 22.744C129.01 22.1893 128.413 21.752 127.752 21.432C127.112 21.0907 126.386 20.92 125.576 20.92C124.445 20.92 123.432 21.2293 122.536 21.848C121.661 22.4453 120.968 23.3093 120.456 24.44C119.965 25.5707 119.72 26.9253 119.72 28.504C119.72 30.8933 120.242 32.7707 121.288 34.136C122.333 35.48 123.73 36.152 125.48 36.152C126.418 36.152 127.25 35.96 127.976 35.576C128.701 35.1707 129.362 34.648 129.96 34.008L131.944 36.344C131.09 37.3253 130.109 38.0827 129 38.616C127.912 39.128 126.696 39.384 125.352 39.384ZM138.925 39.384C137.56 39.384 136.44 38.9573 135.565 38.104C134.712 37.2507 134.285 36.1413 134.285 34.776C134.285 33.0907 135.021 31.7893 136.493 30.872C137.965 29.9333 140.312 29.2933 143.533 28.952C143.512 28.12 143.288 27.4053 142.861 26.808C142.456 26.1893 141.72 25.88 140.653 25.88C139.885 25.88 139.128 26.0293 138.381 26.328C137.656 26.6267 136.941 26.9893 136.237 27.416L134.893 24.952C135.768 24.3973 136.749 23.9173 137.837 23.512C138.947 23.1067 140.12 22.904 141.357 22.904C143.32 22.904 144.781 23.4907 145.741 24.664C146.723 25.816 147.213 27.4907 147.213 29.688V39H144.173L143.917 37.272H143.789C143.085 37.8693 142.328 38.3707 141.517 38.776C140.728 39.1813 139.864 39.384 138.925 39.384ZM140.109 36.504C140.749 36.504 141.325 36.3547 141.837 36.056C142.371 35.736 142.936 35.3093 143.533 34.776V31.256C141.4 31.5333 139.917 31.9493 139.085 32.504C138.253 33.0373 137.837 33.6987 137.837 34.488C137.837 35.192 138.051 35.704 138.477 36.024C138.904 36.344 139.448 36.504 140.109 36.504ZM151.617 39V23.288H154.657L154.913 26.072H155.041C155.596 25.048 156.268 24.2693 157.057 23.736C157.847 23.1813 158.657 22.904 159.489 22.904C160.236 22.904 160.833 23.0107 161.281 23.224L160.641 26.424C160.364 26.3387 160.108 26.2747 159.873 26.232C159.639 26.1893 159.351 26.168 159.009 26.168C158.391 26.168 157.74 26.4133 157.057 26.904C156.375 27.3733 155.788 28.2053 155.297 29.4V39H151.617ZM169.962 39.384C168.512 39.384 167.2 39.064 166.026 38.424C164.853 37.7627 163.925 36.824 163.242 35.608C162.56 34.3707 162.218 32.888 162.218 31.16C162.218 29.4533 162.56 27.9813 163.242 26.744C163.946 25.5067 164.853 24.5573 165.962 23.896C167.072 23.2347 168.234 22.904 169.45 22.904C170.88 22.904 172.074 23.224 173.034 23.864C173.994 24.4827 174.72 25.3573 175.21 26.488C175.701 27.5973 175.946 28.888 175.946 30.36C175.946 31.128 175.893 31.7253 175.786 32.152H165.802C165.973 33.5387 166.474 34.616 167.306 35.384C168.138 36.152 169.184 36.536 170.442 36.536C171.125 36.536 171.754 36.44 172.33 36.248C172.928 36.0347 173.514 35.7467 174.09 35.384L175.338 37.688C174.592 38.1787 173.76 38.584 172.842 38.904C171.925 39.224 170.965 39.384 169.962 39.384ZM165.77 29.656H172.746C172.746 28.44 172.48 27.4907 171.946 26.808C171.413 26.104 170.613 25.752 169.546 25.752C168.629 25.752 167.808 26.0933 167.082 26.776C166.378 27.4373 165.941 28.3973 165.77 29.656Z" fill="#5C4A6D"/>
<path d="M215.75 16.125H210.125V14.875C210.125 13.7147 209.664 12.6019 208.844 11.7814C208.023 10.9609 206.91 10.5 205.75 10.5H198.25C197.09 10.5 195.977 10.9609 195.156 11.7814C194.336 12.6019 193.875 13.7147 193.875 14.875V16.125H188.25C187.421 16.125 186.626 16.4542 186.04 17.0403C185.454 17.6263 185.125 18.4212 185.125 19.25V39.25C185.125 40.0788 185.454 40.8737 186.04 41.4597C186.626 42.0458 187.421 42.375 188.25 42.375H215.75C216.579 42.375 217.374 42.0458 217.96 41.4597C218.546 40.8737 218.875 40.0788 218.875 39.25V19.25C218.875 18.4212 218.546 17.6263 217.96 17.0403C217.374 16.4542 216.579 16.125 215.75 16.125ZM197.625 14.875C197.625 14.7092 197.691 14.5503 197.808 14.4331C197.925 14.3158 198.084 14.25 198.25 14.25H205.75C205.916 14.25 206.075 14.3158 206.192 14.4331C206.309 14.5503 206.375 14.7092 206.375 14.875V16.125H197.625V14.875ZM215.125 38.625H188.875V19.875H215.125V38.625ZM207.625 29.25C207.625 29.7473 207.427 30.2242 207.076 30.5758C206.724 30.9275 206.247 31.125 205.75 31.125H203.875V33C203.875 33.4973 203.677 33.9742 203.326 34.3258C202.974 34.6775 202.497 34.875 202 34.875C201.503 34.875 201.026 34.6775 200.674 34.3258C200.323 33.9742 200.125 33.4973 200.125 33V31.125H198.25C197.753 31.125 197.276 30.9275 196.924 30.5758C196.573 30.2242 196.375 29.7473 196.375 29.25C196.375 28.7527 196.573 28.2758 196.924 27.9242C197.276 27.5725 197.753 27.375 198.25 27.375H200.125V25.5C200.125 25.0027 200.323 24.5258 200.674 24.1742C201.026 23.8225 201.503 23.625 202 23.625C202.497 23.625 202.974 23.8225 203.326 24.1742C203.677 24.5258 203.875 25.0027 203.875 25.5V27.375H205.75C206.247 27.375 206.724 27.5725 207.076 27.9242C207.427 28.2758 207.625 28.7527 207.625 29.25Z" fill="#5C4A6D"/>
</svg>
