<svg width="301" height="301" viewBox="0 0 301 301" fill="none" xmlns="http://www.w3.org/2000/svg">
<g clip-path="url(#clip0_66_9883)">
<path d="M244.315 175.222L193.638 192.776L185.772 246.037C185.355 248.932 184.09 251.639 182.135 253.816C180.181 255.992 177.625 257.54 174.791 258.265C171.957 258.99 168.972 258.859 166.213 257.888C163.453 256.917 161.044 255.15 159.288 252.81L127.308 209.913L74.5779 219.126C71.6985 219.613 68.7393 219.237 66.0729 218.046C63.4066 216.855 61.1522 214.902 59.5938 212.432C58.0354 209.962 57.2426 207.086 57.3152 204.167C57.3879 201.248 58.3227 198.415 60.0019 196.026L90.9003 151.924L66.1155 104.363C64.7689 101.773 64.2149 98.8449 64.5227 95.9428C64.8305 93.0407 65.9865 90.2936 67.8462 88.0446C69.706 85.7955 72.1871 84.1442 74.9798 83.2969C77.7725 82.4495 80.7529 82.4437 83.5488 83.2801L134.605 98.9601L172.053 60.3658C174.087 58.2596 176.701 56.8057 179.563 56.1891C182.425 55.5724 185.406 55.8208 188.127 56.9026C190.848 57.9845 193.185 59.8509 194.842 62.2646C196.499 64.6784 197.401 67.5304 197.433 70.458L198.144 124.226L246.027 147.888C248.643 149.193 250.815 151.241 252.272 153.776C253.729 156.31 254.405 159.218 254.217 162.135C254.028 165.053 252.983 167.849 251.212 170.175C249.441 172.501 247.023 174.252 244.261 175.21L244.315 175.222Z" fill="#FFE599"/>
</g>
<defs>
<clipPath id="clip0_66_9883">
<rect width="230.995" height="230.995" fill="white" transform="translate(86.1624 0.809601) rotate(21.6848)"/>
</clipPath>
</defs>
</svg>
