<svg width="71" height="69" viewBox="0 0 71 69" fill="none" xmlns="http://www.w3.org/2000/svg">
<path d="M68.6102 31.4175L54.5477 43.5519L58.8321 61.6987C59.0685 62.6839 59.0076 63.7169 58.6572 64.6674C58.3067 65.618 57.6824 66.4433 56.8631 67.0392C56.0439 67.6351 55.0663 67.9748 54.0541 68.0155C53.0418 68.0561 52.0402 67.7958 51.1758 67.2675L35.3946 57.555L19.604 67.2675C18.7397 67.7928 17.7393 68.0506 16.7288 68.0085C15.7182 67.9663 14.7428 67.6262 13.9252 67.0308C13.1076 66.4354 12.4845 65.6114 12.1343 64.6626C11.7841 63.7138 11.7224 62.6825 11.9571 61.6987L16.2571 43.5519L2.19458 31.4175C1.42989 30.7566 0.876846 29.885 0.604526 28.9117C0.332206 27.9384 0.352675 26.9064 0.663378 25.9446C0.97408 24.9828 1.56125 24.1339 2.35155 23.5038C3.14185 22.8738 4.10025 22.4905 5.10708 22.4019L23.5446 20.9144L30.6571 3.70187C31.0421 2.7638 31.6973 1.96139 32.5395 1.39667C33.3817 0.831954 34.3728 0.530426 35.3868 0.530426C36.4008 0.530426 37.3919 0.831954 38.234 1.39667C39.0762 1.96139 39.7315 2.7638 40.1165 3.70187L47.2258 20.9144L65.6633 22.4019C66.6722 22.4872 67.6334 22.8683 68.4265 23.4975C69.2197 24.1267 69.8096 24.976 70.1222 25.9389C70.4348 26.9019 70.4564 27.9356 70.1841 28.9108C69.9118 29.8859 69.3578 30.759 68.5915 31.4206L68.6102 31.4175Z" fill="#FFC727"/>
</svg>
