<svg width="56" height="76" viewBox="0 0 56 76" fill="none" xmlns="http://www.w3.org/2000/svg">
<path d="M54.8282 37.2063L19.8282 74.7063C19.4573 75.1021 18.9677 75.3665 18.4333 75.4597C17.8989 75.5529 17.3487 75.4697 16.8658 75.2227C16.3828 74.9758 15.9932 74.5785 15.7559 74.0907C15.5186 73.6029 15.4463 73.0512 15.5501 72.5188L20.1313 49.6031L2.12193 42.8406C1.73515 42.696 1.39024 42.4577 1.118 42.1472C0.845762 41.8367 0.65468 41.4636 0.561825 41.0612C0.468969 40.6589 0.477233 40.2397 0.585877 39.8413C0.694522 39.4429 0.900162 39.0777 1.18443 38.7781L36.1844 1.27813C36.5553 0.882302 37.0449 0.617851 37.5793 0.524681C38.1137 0.431512 38.6639 0.514679 39.1468 0.761633C39.6298 1.00859 40.0194 1.40593 40.2567 1.8937C40.494 2.38146 40.5663 2.93319 40.4626 3.46563L35.8688 26.4063L53.8782 33.1594C54.2621 33.305 54.6042 33.543 54.8744 33.8523C55.1445 34.1615 55.3343 34.5326 55.4269 34.9326C55.5196 35.3327 55.5123 35.7494 55.4057 36.1459C55.2991 36.5424 55.0965 36.9066 54.8157 37.2063H54.8282Z" fill="#FFC727"/>
</svg>
